<svg width="77" height="58" viewBox="0 0 77 58" fill="none" xmlns="http://www.w3.org/2000/svg">
<path d="M54.5566 47.0003H57.0006V12.7773H54.5566V47.0003Z" fill="#66BB6A"/>
<path d="M75.2619 7.05273H63.8439C61.533 7.05273 59.3168 7.97071 57.6828 9.60471C56.0488 11.2387 55.1309 13.4549 55.1309 15.7657V19.1307H55.1979C55.3575 16.9454 56.3373 14.9011 57.9407 13.4077C59.5441 11.9143 61.6527 11.082 63.8439 11.0777H75.1949C75.2119 10.8567 75.2619 10.6437 75.2619 10.4167V7.05273Z" fill="#66BB6A"/>
<path d="M75.2619 7.05273H63.8439C61.533 7.05273 59.3168 7.97071 57.6828 9.60471C56.0488 11.2387 55.1309 13.4549 55.1309 15.7657V19.1307H55.1979C55.3575 16.9454 56.3373 14.9011 57.9407 13.4077C59.5441 11.9143 61.6527 11.082 63.8439 11.0777H75.1949C75.2119 10.8567 75.2619 10.6437 75.2619 10.4167V7.05273Z" stroke="white" stroke-width="2" stroke-miterlimit="10" stroke-linecap="round" stroke-linejoin="round"/>
<path d="M55.1973 19.1311H66.5483C68.74 19.1276 70.8493 18.2957 72.4534 16.8022C74.0574 15.3087 75.0375 13.264 75.1973 11.0781H63.8433C61.6522 11.0826 59.5437 11.915 57.9403 13.4083C56.337 14.9017 55.3572 16.9459 55.1973 19.1311" fill="#66BB6A"/>
<path d="M55.1973 19.1311H66.5483C68.74 19.1276 70.8493 18.2957 72.4534 16.8022C74.0574 15.3087 75.0375 13.264 75.1973 11.0781H63.8433C61.6522 11.0826 59.5437 11.915 57.9403 13.4083C56.337 14.9017 55.3572 16.9459 55.1973 19.1311V19.1311Z" stroke="white" stroke-width="2" stroke-miterlimit="10" stroke-linecap="round" stroke-linejoin="round"/>
<path d="M55.131 13.078H43.714C41.4031 13.078 39.1868 12.1601 37.5526 10.5261C35.9185 8.89211 35.0003 6.67592 35 4.365V1H35.067C35.2267 3.18552 36.2066 5.22993 37.8102 6.72339C39.4138 8.21685 41.5227 9.04899 43.714 9.053H55.064C55.081 9.274 55.131 9.487 55.131 9.714V13.078Z" fill="#66BB6A"/>
<path d="M55.131 13.078H43.714C41.4031 13.078 39.1868 12.1601 37.5526 10.5261C35.9185 8.89211 35.0003 6.67592 35 4.365V1H35.067C35.2267 3.18552 36.2066 5.22993 37.8102 6.72339C39.4138 8.21685 41.5227 9.04899 43.714 9.053H55.064C55.081 9.274 55.131 9.487 55.131 9.714V13.078Z" stroke="white" stroke-width="2" stroke-miterlimit="10" stroke-linecap="round" stroke-linejoin="round"/>
<path d="M35.0664 1H46.4174C48.609 1.00374 50.7183 1.83574 52.3222 3.3292C53.9262 4.82267 54.9065 6.86722 55.0664 9.053H43.7124C41.5212 9.04874 39.4126 8.21648 37.8092 6.72305C36.2058 5.22961 35.2261 3.18535 35.0664 1" fill="#66BB6A"/>
<path d="M35.0664 1H46.4174C48.609 1.00374 50.7183 1.83574 52.3222 3.3292C53.9262 4.82267 54.9065 6.86722 55.0664 9.053H43.7124C41.5212 9.04874 39.4126 8.21648 37.8092 6.72305C36.2058 5.22961 35.2261 3.18535 35.0664 1V1Z" stroke="white" stroke-width="2" stroke-miterlimit="10" stroke-linecap="round" stroke-linejoin="round"/>
<path d="M57.363 36.3236C57.3632 34.9323 56.8552 33.5889 55.9344 32.5458C55.0137 31.5028 53.7436 30.832 52.363 30.6596L37.206 28.7646L1 56.9996H29L37.206 46.3996" fill="#66BB6A"/>
<path d="M57.363 36.3238C57.3632 34.9325 56.8552 33.5891 55.9344 32.546C55.0137 31.503 53.7436 30.8322 52.363 30.6598L39.372 29.0358C38.6855 28.9499 37.9888 29.0003 37.3218 29.1841C36.6548 29.3678 36.0306 29.6814 35.485 30.1068L1 56.9948" stroke="white" stroke-width="2" stroke-miterlimit="10" stroke-linecap="round" stroke-linejoin="round"/>
<path d="M66.9801 28.7656L62.8431 29.2566C62.3103 29.3199 61.7972 29.4962 61.3381 29.7736L56.5801 32.6476V38.9996H60.9991L66.9801 28.7656Z" fill="#66BB6A"/>
<path d="M66.9801 28.7656L62.8431 29.2566C62.3103 29.3199 61.7972 29.4962 61.3381 29.7736L56.5801 32.6476V38.9996H60.9991L66.9801 28.7656Z" stroke="white" stroke-width="2" stroke-miterlimit="10" stroke-linecap="round" stroke-linejoin="round"/>
<path d="M44.765 36.3237H59.883L68.53 27.6757C68.9469 27.26 69.484 26.9859 70.0653 26.8922C70.6466 26.7985 71.2426 26.89 71.769 27.1537L75 28.7647L59.883 46.4017H37.206L29 56.9997" fill="#66BB6A"/>
<path d="M44.765 36.3237H59.883L68.53 27.6757C68.9469 27.26 69.484 26.9859 70.0653 26.8922C70.6466 26.7985 71.2426 26.89 71.769 27.1537L75 28.7647L59.883 46.4017H37.206L29 56.9997" stroke="white" stroke-width="2" stroke-miterlimit="10" stroke-linecap="round" stroke-linejoin="round"/>
</svg>
