<svg width="78" height="64" viewBox="0 0 78 64" fill="none" xmlns="http://www.w3.org/2000/svg">
<path d="M75.7213 63.0004H39.5303V49.0464C39.5303 46.8036 40.2533 44.6206 41.5921 42.8212C42.9309 41.0218 44.8141 39.7019 46.9623 39.0574L57.6253 35.8574L68.2883 39.0574C70.4368 39.7018 72.3203 41.0217 73.6593 42.8214C74.9983 44.621 75.7214 46.8043 75.7213 49.0474V63.0004Z" fill="#66BB6A"/>
<path d="M75.7213 63.0004H39.5303V49.0464C39.5303 46.8036 40.2533 44.6206 41.5921 42.8212C42.9309 41.0218 44.8141 39.7019 46.9623 39.0574L57.6253 35.8574L68.2883 39.0574C70.4368 39.7018 72.3203 41.0217 73.6593 42.8214C74.9983 44.621 75.7214 46.8043 75.7213 49.0474V63.0004Z" stroke="white" stroke-width="2" stroke-miterlimit="10" stroke-linecap="round" stroke-linejoin="round"/>
<path d="M67.125 21.381L64.75 12.333H50.5L48.125 21.381L38.625 26.81H76.625L67.125 21.381Z" fill="#66BB6A"/>
<path d="M67.125 21.381L64.75 12.333H50.5L48.125 21.381L38.625 26.81H76.625L67.125 21.381Z" stroke="white" stroke-width="2" stroke-miterlimit="10" stroke-linecap="round" stroke-linejoin="round"/>
<path d="M67.125 21.3809H48.125" stroke="white" stroke-width="2" stroke-miterlimit="10"/>
<path d="M57.6251 43.0956C55.2255 43.0956 52.9241 42.1423 51.2272 40.4455C49.5304 38.7486 48.5771 36.4472 48.5771 34.0476V26.8096H66.6771V34.0476C66.6771 35.2358 66.4431 36.4123 65.9884 37.5101C65.5337 38.6078 64.8672 39.6053 64.0271 40.4455C63.1869 41.2857 62.1894 41.9521 61.0917 42.4068C59.9939 42.8615 58.8173 43.0956 57.6291 43.0956" fill="#66BB6A"/>
<path d="M57.6251 43.0956C55.2255 43.0956 52.9241 42.1423 51.2272 40.4455C49.5304 38.7486 48.5771 36.4472 48.5771 34.0476V26.8096H66.6771V34.0476C66.6771 35.2361 66.443 36.413 65.988 37.511C65.5331 38.609 64.8662 39.6067 64.0256 40.4469C63.185 41.2871 62.1871 41.9535 61.0889 42.408C59.9907 42.8625 58.8137 43.0961 57.6251 43.0956V43.0956Z" stroke="white" stroke-width="2" stroke-miterlimit="10" stroke-linecap="round" stroke-linejoin="round"/>
<path d="M46.3934 63.0001H2.1084V45.9241C2.10852 43.1788 2.99399 40.5067 4.63333 38.3046C6.27267 36.1025 8.57848 34.4877 11.2084 33.7001L24.2504 29.7861L37.2984 33.7001C39.9283 34.4877 42.2341 36.1025 43.8735 38.3046C45.5128 40.5067 46.3983 43.1788 46.3984 45.9241L46.3934 63.0001Z" fill="#66BB6A"/>
<path d="M46.3934 63.0001H2.1084V45.9241C2.10852 43.1788 2.99399 40.5067 4.63333 38.3046C6.27267 36.1025 8.57848 34.4877 11.2084 33.7001L24.2504 29.7861L37.2984 33.7001C39.9283 34.4877 42.2341 36.1025 43.8735 38.3046C45.5128 40.5067 46.3983 43.1788 46.3984 45.9241L46.3934 63.0001Z" stroke="white" stroke-width="2" stroke-miterlimit="10" stroke-linecap="round" stroke-linejoin="round"/>
<path d="M35.875 12.071L32.969 1H15.531L12.625 12.071L1 18.714H47.5L35.875 12.071Z" fill="#66BB6A"/>
<path d="M35.875 12.071L32.969 1H15.531L12.625 12.071L1 18.714H47.5L35.875 12.071Z" stroke="white" stroke-width="2" stroke-miterlimit="10" stroke-linecap="round" stroke-linejoin="round"/>
<path d="M35.875 12.0713H12.625" stroke="white" stroke-width="2" stroke-miterlimit="10"/>
<path d="M24.2497 38.6429C21.3135 38.6429 18.4975 37.4765 16.4213 35.4002C14.3451 33.324 13.1787 30.5081 13.1787 27.5719V18.7139H35.3207V27.5719C35.3207 30.5081 34.1543 33.324 32.0781 35.4002C30.0019 37.4765 27.1859 38.6429 24.2497 38.6429Z" fill="#66BB6A"/>
<path d="M24.2497 38.6429C21.3135 38.6429 18.4975 37.4765 16.4213 35.4002C14.3451 33.324 13.1787 30.5081 13.1787 27.5719V18.7139H35.3207V27.5719C35.3207 30.5081 34.1543 33.324 32.0781 35.4002C30.0019 37.4765 27.1859 38.6429 24.2497 38.6429V38.6429Z" stroke="white" stroke-width="2" stroke-miterlimit="10" stroke-linecap="round" stroke-linejoin="round"/>
<path d="M8.75 63.0001H39.75V45.2861H8.75V63.0001Z" stroke="white" stroke-width="2" stroke-miterlimit="10" stroke-linecap="round" stroke-linejoin="round"/>
<path d="M10.9639 45.2859V34.2139" stroke="white" stroke-width="2" stroke-miterlimit="10" stroke-linecap="round" stroke-linejoin="round"/>
<path d="M37.5361 45.2859V34.2139" stroke="white" stroke-width="2" stroke-miterlimit="10" stroke-linecap="round" stroke-linejoin="round"/>
<path d="M35.3206 51.9289C35.3206 52.367 35.1907 52.7953 34.9473 53.1596C34.7038 53.5238 34.3578 53.8077 33.953 53.9754C33.5482 54.143 33.1028 54.1868 32.6731 54.1012C32.2434 54.0157 31.8488 53.8046 31.539 53.4948C31.2293 53.1849 31.0184 52.7901 30.9331 52.3604C30.8477 51.9306 30.8917 51.4853 31.0595 51.0805C31.2273 50.6758 31.5114 50.3299 31.8758 50.0867C32.2402 49.8434 32.6685 49.7137 33.1066 49.7139C33.3975 49.7139 33.6854 49.7712 33.9541 49.8825C34.2228 49.9938 34.4669 50.157 34.6725 50.3627C34.8781 50.5684 35.0412 50.8126 35.1524 51.0813C35.2636 51.35 35.3208 51.638 35.3206 51.9289Z" fill="white"/>
<path d="M17.6068 51.9289C17.6068 52.367 17.4769 52.7952 17.2335 53.1595C16.9901 53.5237 16.6441 53.8076 16.2394 53.9753C15.8347 54.1429 15.3893 54.1868 14.9596 54.1013C14.53 54.0158 14.1353 53.8049 13.8255 53.4951C13.5157 53.1853 13.3048 52.7907 13.2193 52.361C13.1339 51.9313 13.1777 51.486 13.3454 51.0812C13.513 50.6765 13.7969 50.3305 14.1612 50.0872C14.5254 49.8438 14.9537 49.7139 15.3918 49.7139C15.6827 49.7137 15.9708 49.7709 16.2396 49.8822C16.5084 49.9935 16.7526 50.1566 16.9583 50.3623C17.164 50.568 17.3272 50.8123 17.4384 51.0811C17.5497 51.3499 17.6069 51.638 17.6068 51.9289Z" fill="white"/>
<path d="M19 29C19.3854 30.1568 20.1228 31.1643 21.1089 31.8815C22.095 32.5987 23.2807 32.9898 24.5 33C25.7193 32.9898 26.905 32.5987 27.8911 31.8815C28.8772 31.1643 29.6146 30.1568 30 29" fill="#66BB6A"/>
<path d="M19 29C19.3854 30.1568 20.1228 31.1643 21.1089 31.8815C22.095 32.5987 23.2807 32.9898 24.5 33C25.7193 32.9898 26.905 32.5987 27.8911 31.8815C28.8772 31.1643 29.6146 30.1568 30 29" stroke="white" stroke-width="2" stroke-miterlimit="10" stroke-linecap="round" stroke-linejoin="round"/>
</svg>
