<svg width="505" height="286" viewBox="0 0 505 286" fill="none" xmlns="http://www.w3.org/2000/svg">
<path d="M67.3759 277.292C67.3759 277.292 -37.7241 88.0066 40.9469 43.8386C103.715 8.60062 158.774 70.2677 225.947 27.3207C312.609 -28.0853 378.305 9.00771 425.263 77.9757C460.501 129.732 479.163 163.211 496.84 203.512C524.37 266.28 466.007 280.595 466.007 280.595L67.3759 277.292Z" fill="#43A047"/>
<path d="M357.778 278.526L309.861 278.613C309.506 278.533 309.187 278.338 308.954 278.059C308.72 277.78 308.585 277.432 308.568 277.069C308.552 276.705 308.655 276.347 308.862 276.047C309.069 275.748 309.369 275.526 309.715 275.413L357.44 271.127C361.315 270.779 364.84 272.279 364.945 274.492C365.05 276.705 361.669 278.519 357.778 278.526Z" fill="#625A40"/>
<path d="M295.735 271.743C297.387 271.33 300.415 262.291 300.415 262.291C300.415 262.291 265.815 250.624 251.136 243.02L230.691 266.669C256.956 273.211 294.51 272.049 295.735 271.743Z" fill="#F09959"/>
<path d="M290.413 258.711C298.929 260.911 312.476 255.411 315.013 255.958C317.55 256.505 328.131 262.014 330.663 264.767C333.195 267.52 342.17 276.056 340.563 276.606C338.956 277.156 327.674 268.897 326.294 268.622C324.914 268.347 324.223 270.274 312.945 272.476C301.667 274.678 288.035 268.989 288.035 268.989L290.413 258.711Z" fill="#F09959"/>
<path d="M303.961 267.247C303.961 267.247 317.08 263.947 318.691 264.494C320.302 265.041 330.083 267.247 336.873 274.955C330.429 273.028 321.223 272.477 318.691 272.477C316.159 272.477 303.961 267.247 303.961 267.247Z" fill="#E38540"/>
<path d="M307.097 261.74C312.697 268.898 326.92 271.1 329.074 273.577C331.228 276.054 323.894 275.003 320.024 274.677C310.175 273.851 303.295 277.843 295.324 275.365C287.353 272.887 285.551 266.965 285.551 266.965L307.097 261.74Z" fill="#F09959"/>
<path d="M202.108 134.678C176.84 147.094 165.277 156.178 157.432 190.039C149.587 223.9 149.174 256.107 153.303 280.056C181.35 280.87 261.737 283.899 261.737 283.899C261.737 283.899 260.206 234.727 251.992 195.819C244.146 158.656 232.997 144.203 223.5 137.596C214.003 130.989 202.108 134.678 202.108 134.678Z" fill="#AFAA2C"/>
<path d="M208.222 249.913C199.164 240.83 201.615 179.303 186.75 151.637L159.083 203.254L150.719 246.201C150.593 257.539 151.457 268.866 153.302 280.054C153.351 280.325 153.5 280.567 153.719 280.734C153.938 280.9 154.211 280.979 154.485 280.954C177.324 278.954 178.597 269.028 251.55 258.016C253.272 257.762 214.385 256.094 208.222 249.913Z" fill="#738120"/>
<path d="M199.703 134.69C196.503 142.16 203.003 151.942 213.284 159.65C223.565 167.358 229.802 163.137 229.251 157.081C228.7 151.025 228.151 144.601 225.764 140.746C223.377 136.891 204.291 133.589 204.291 133.589C204.291 133.589 200.253 133.406 199.703 134.69Z" fill="white"/>
<path d="M211.908 97.2471L202.108 134.678C201.632 135.914 201.449 137.243 201.573 138.562C201.697 139.88 202.124 141.152 202.822 142.278C206.813 148.724 215.398 161.109 221.543 159.471C229.802 157.271 224.296 141.852 224.296 141.852L235.308 103.032L211.908 97.2471Z" fill="#F09959"/>
<path d="M226.922 99.5577L217.138 95.5977L214.199 103.239C215.547 135.773 219.692 149.051 226.055 152.752C226.397 147.734 224.296 141.852 224.296 141.852L232.28 112.943L226.922 99.5577Z" fill="#E38540"/>
<path d="M254.097 114.225C252.189 127.146 247.097 138.216 237.869 136.853C228.641 135.49 212.795 124.677 214.703 111.753C216.611 98.8288 237.327 83.3598 246.556 84.7228C255.785 86.0858 256.005 101.304 254.097 114.225Z" fill="#F09959"/>
<path d="M183.858 162.786C184.594 159.852 172.841 158.098 170.971 160.476C152.481 183.991 123.721 247.518 130.178 258.998C137.611 272.212 217.688 254.859 219.34 254.446C220.992 254.033 216.449 241.646 216.449 241.646C216.449 241.646 171.575 242.472 164.005 237.379C187.542 193.194 178.282 185.022 183.858 162.786Z" fill="#F09959"/>
<path d="M179.317 149.571C159.894 158.278 138.85 214.814 138.85 214.814C138.85 214.814 143.805 216.053 159.909 221.421C166.603 223.652 173.09 225.721 173.09 225.721C173.09 225.721 188.506 205.716 193.356 190.038C199.603 169.842 191.292 144.203 179.317 149.571Z" fill="#AFAA2C"/>
<path d="M140.934 209.507C159.1 211.85 169.956 218.175 175.472 222.496C176.301 221.343 177.304 219.919 178.413 218.29C171.713 212.029 163.261 207.963 154.189 206.634C149.28 205.948 145.543 205.505 142.705 205.221C142.034 206.813 141.441 208.254 140.934 209.507Z" fill="white"/>
<path d="M145.101 199.658C144.79 200.364 144.49 201.053 144.201 201.724C160.158 201.086 175.469 208.859 179.335 213.604L180.546 215.09C180.946 214.477 181.353 213.846 181.765 213.198C179.147 210.62 174.498 206.481 169.792 204.427C160.154 200.228 146.342 199.702 145.101 199.658Z" fill="white"/>
<path d="M252.103 257.841H231.729L228.701 219.803H255.403L252.103 257.841Z" fill="#C61E14"/>
<path d="M213.974 241.781C219.618 241.643 228.84 235.174 232.006 233.381C235.172 231.588 253.066 227.737 253.892 229.665C254.718 231.593 238.892 235.584 238.892 235.584L250.73 236.135C250.73 236.135 254.171 241.366 254.446 244.807C254.474 247.644 254.103 250.472 253.346 253.207L248.116 248.527C248.116 248.527 243.849 250.867 238.48 254.033C233.111 257.199 223.48 255.272 219.347 254.446C215.214 253.62 205.582 250.592 205.582 250.592L213.974 241.781Z" fill="#F09959"/>
<path d="M140.191 239.992C140.191 239.992 149.322 234.716 158.499 236C163.758 236.736 164.328 237.594 164.004 237.377C165.141 235.243 166.202 233.192 167.188 231.224C162.407 231.446 150.151 232.739 140.191 239.992Z" fill="#E38540"/>
<path d="M428.406 175.158V268.897C428.406 272.014 425.469 274.54 421.845 274.54H402.163C398.805 274.54 396.082 276.882 396.082 279.771H424.406C430.506 279.771 435.447 275.519 435.447 270.271V175.155L428.406 175.158Z" fill="#7B630B"/>
<path d="M414.012 255.438L410.887 254.843C410.429 254.793 409.987 254.649 409.588 254.419C409.189 254.19 408.841 253.881 408.567 253.511C408.293 253.141 408.098 252.719 407.995 252.27C407.892 251.822 407.883 251.357 407.968 250.904L432.462 155.753C432.779 154.843 433.423 154.082 434.269 153.618C435.115 153.154 436.103 153.02 437.042 153.242L440.167 153.842C440.624 153.893 441.066 154.037 441.466 154.266C441.865 154.495 442.212 154.805 442.486 155.175C442.76 155.544 442.955 155.967 443.058 156.415C443.161 156.864 443.171 157.329 443.086 157.781L418.592 252.932C418.273 253.842 417.629 254.602 416.783 255.065C415.937 255.528 414.95 255.661 414.012 255.438Z" fill="#95BEF5"/>
<path d="M414.865 255.602L414.497 255.533C414.143 255.494 413.802 255.382 413.493 255.205C413.185 255.028 412.917 254.789 412.705 254.504C412.493 254.218 412.343 253.892 412.263 253.545C412.183 253.198 412.176 252.839 412.242 252.49L437.114 155.87C437.359 155.166 437.856 154.578 438.509 154.22C439.162 153.861 439.926 153.758 440.651 153.93L441.019 154C441.372 154.039 441.714 154.15 442.022 154.327C442.33 154.504 442.599 154.743 442.81 155.029C443.022 155.315 443.173 155.641 443.252 155.987C443.332 156.334 443.339 156.693 443.274 157.043L418.402 253.663C418.157 254.366 417.659 254.954 417.006 255.312C416.353 255.671 415.59 255.774 414.865 255.602Z" fill="#AFAA2C"/>
<path d="M480.068 285.2H59.3367C58.4123 285.185 57.5309 284.807 56.8826 284.147C56.2344 283.488 55.8711 282.601 55.8711 281.676C55.8711 280.751 56.2344 279.864 56.8826 279.204C57.5309 278.545 58.4123 278.167 59.3367 278.151H480.068C480.992 278.167 481.874 278.545 482.522 279.204C483.17 279.864 483.533 280.751 483.533 281.676C483.533 282.601 483.17 283.488 482.522 284.147C481.874 284.807 480.992 285.185 480.068 285.2Z" fill="#018024"/>
<path d="M216.151 81.1055C197.087 92.9305 209.151 105.719 204.086 127.678C207.2 128.744 210.601 122.61 212.773 117.784C214.945 112.958 216.873 105.959 217.599 106.201C218.325 106.443 219.529 117.301 219.529 117.301L222.429 118.749C222.429 118.749 226.529 111.509 226.29 109.82C226.051 108.131 222.67 99.9264 226.773 96.0654C229.408 93.5844 240.286 98.9655 240.286 98.9655L229.668 83.7655L216.151 81.1055Z" fill="#F09959"/>
<path opacity="0.5" d="M216.151 81.1055C197.087 92.9305 209.151 105.719 204.086 127.678C207.2 128.744 210.601 122.61 212.773 117.784C214.945 112.958 216.873 105.959 217.599 106.201C218.325 106.443 219.529 117.301 219.529 117.301L222.429 118.749C222.429 118.749 226.529 111.509 226.29 109.82C226.051 108.131 222.67 99.9264 226.773 96.0654C229.408 93.5844 240.286 98.9655 240.286 98.9655L229.668 83.7655L216.151 81.1055Z" fill="#2E5B9A"/>
<path d="M257.897 93.8959C256.932 105.479 238.977 101.855 230.629 91.483C222.665 81.589 216.114 88.4089 208.187 91.7239C194.915 97.2739 209.876 65.1799 236.662 70.2469C256.763 74.0499 258.54 86.1859 257.897 93.8959Z" fill="#0A5B1C"/>
<path d="M217.988 106.198C218.811 110.518 217.197 114.455 214.383 114.992C211.569 115.529 208.619 112.461 207.795 108.141C206.971 103.821 208.586 99.8842 211.4 99.3472C214.214 98.8102 217.164 101.875 217.988 106.198Z" fill="#F09959"/>
<path d="M330.978 74.001H417.868C419.214 74.001 420.505 74.5356 421.456 75.4871C422.408 76.4387 422.942 77.7293 422.942 79.075V126.737C422.942 128.083 422.408 129.373 421.456 130.325C420.505 131.276 419.214 131.811 417.868 131.811H330.977C329.632 131.811 328.342 131.277 327.39 130.325C326.439 129.374 325.904 128.083 325.904 126.738V79.075C325.904 77.7293 326.439 76.4387 327.39 75.4871C328.342 74.5356 329.633 74.001 330.978 74.001V74.001Z" fill="#AFAA2C"/>
<path d="M415.549 83.2979H333.299C330.858 83.2979 328.879 85.2768 328.879 87.7179V125.619C328.879 128.06 330.858 130.039 333.299 130.039H415.549C417.99 130.039 419.969 128.06 419.969 125.619V87.7179C419.969 85.2768 417.99 83.2979 415.549 83.2979Z" fill="white"/>
<path d="M331.542 77.2646H331.904C332.336 77.2649 332.749 77.4366 333.055 77.7418C333.36 78.0471 333.531 78.461 333.531 78.8926C333.531 79.3241 333.359 79.7378 333.054 80.0428C332.749 80.3479 332.335 80.5194 331.904 80.5196H331.542C331.11 80.5196 330.697 80.3483 330.391 80.0432C330.086 79.7381 329.914 79.3242 329.914 78.8926V78.8926C329.914 78.4609 330.086 78.0468 330.391 77.7415C330.696 77.4362 331.11 77.2646 331.542 77.2646V77.2646Z" fill="white"/>
<path d="M338.118 77.2646H338.48C338.912 77.2649 339.326 77.4366 339.631 77.7418C339.936 78.0471 340.107 78.461 340.107 78.8926C340.107 79.3241 339.935 79.7378 339.63 80.0428C339.325 80.3479 338.912 80.5194 338.48 80.5196H338.118C337.687 80.5196 337.273 80.3483 336.967 80.0432C336.662 79.7381 336.49 79.3242 336.49 78.8926V78.8926C336.49 78.4609 336.662 78.0468 336.967 77.7415C337.272 77.4362 337.686 77.2646 338.118 77.2646V77.2646Z" fill="white"/>
<path d="M344.694 77.2646H345.056C345.488 77.2649 345.902 77.4366 346.207 77.7418C346.512 78.0471 346.683 78.461 346.683 78.8926C346.683 79.3242 346.512 79.7381 346.206 80.0432C345.901 80.3483 345.487 80.5196 345.055 80.5196H344.693C344.262 80.5196 343.848 80.3482 343.543 80.0431C343.238 79.738 343.066 79.3242 343.066 78.8926V78.8926C343.066 78.4609 343.238 78.0468 343.543 77.7415C343.849 77.4362 344.263 77.2646 344.694 77.2646V77.2646Z" fill="white"/>
<path d="M416.879 127.285H331.967V86.0527H416.879V127.285ZM332.271 126.985H416.571V86.3617H332.271V126.985Z" fill="#9EC8FF"/>
<path d="M416.727 118.795H332.119V119.099H416.727V118.795Z" fill="#9EC8FF"/>
<path d="M416.727 110.608H332.119V110.912H416.727V110.608Z" fill="#9EC8FF"/>
<path d="M416.727 102.424H332.119V102.728H416.727V102.424Z" fill="#9EC8FF"/>
<path d="M416.727 94.2373H332.119V94.5413H416.727V94.2373Z" fill="#9EC8FF"/>
<path d="M404.792 86.2051H404.488V127.133H404.792V86.2051Z" fill="#9EC8FF"/>
<path d="M392.706 86.2051H392.402V127.133H392.706V86.2051Z" fill="#9EC8FF"/>
<path d="M380.618 86.2051H380.314V127.133H380.618V86.2051Z" fill="#9EC8FF"/>
<path d="M368.533 86.2051H368.229V127.133H368.533V86.2051Z" fill="#9EC8FF"/>
<path d="M356.445 86.2051H356.141V127.133H356.445V86.2051Z" fill="#9EC8FF"/>
<path d="M344.359 86.2051H344.055V127.133H344.359V86.2051Z" fill="#9EC8FF"/>
<path d="M413.562 91.3728H410.717C410.458 91.3728 410.201 91.3218 409.962 91.2227C409.723 91.1235 409.505 90.9781 409.322 90.7949C409.139 90.6117 408.993 90.3942 408.894 90.1548C408.795 89.9154 408.744 89.6589 408.744 89.3998C408.744 89.1407 408.795 88.8842 408.894 88.6448C408.993 88.4054 409.139 88.1878 409.322 88.0046C409.505 87.8214 409.723 87.6762 409.962 87.577C410.201 87.4779 410.458 87.4268 410.717 87.4268H413.562C413.821 87.4268 414.078 87.4779 414.317 87.577C414.557 87.6762 414.774 87.8214 414.957 88.0046C415.14 88.1878 415.286 88.4054 415.385 88.6448C415.484 88.8842 415.535 89.1407 415.535 89.3998C415.535 89.6589 415.484 89.9154 415.385 90.1548C415.286 90.3942 415.14 90.6117 414.957 90.7949C414.774 90.9781 414.557 91.1235 414.317 91.2227C414.078 91.3218 413.821 91.3728 413.562 91.3728Z" fill="#F39892"/>
<path d="M410.716 103.945H413.562C413.821 103.945 414.078 103.996 414.317 104.095C414.557 104.195 414.774 104.34 414.957 104.523C415.14 104.706 415.286 104.924 415.385 105.163C415.484 105.403 415.535 105.659 415.535 105.918C415.535 106.177 415.484 106.434 415.385 106.674C415.286 106.913 415.141 107.13 414.958 107.314C414.774 107.497 414.557 107.642 414.317 107.741C414.078 107.841 413.821 107.891 413.562 107.891H410.717C410.194 107.891 409.692 107.683 409.322 107.313C408.952 106.943 408.744 106.442 408.744 105.918C408.744 105.659 408.795 105.403 408.894 105.163C408.993 104.924 409.138 104.706 409.321 104.523C409.505 104.34 409.722 104.195 409.961 104.096C410.201 103.996 410.457 103.945 410.716 103.945V103.945Z" fill="#F39892"/>
<path d="M348.339 95.5488H351.872C352.645 95.5488 353.386 95.8558 353.932 96.4023C354.479 96.9488 354.786 97.69 354.786 98.4628C354.786 98.8454 354.71 99.2242 354.564 99.5776C354.418 99.931 354.203 100.252 353.933 100.523C353.662 100.793 353.341 101.008 352.988 101.154C352.634 101.3 352.255 101.376 351.873 101.376H348.34C347.567 101.376 346.826 101.069 346.279 100.522C345.733 99.9759 345.426 99.2347 345.426 98.4618V98.4618C345.426 97.6893 345.733 96.9483 346.279 96.402C346.825 95.8557 347.566 95.5488 348.339 95.5488Z" fill="#9EC8FF"/>
<path d="M351.374 96.3691H348.837C347.681 96.3691 346.744 97.3062 346.744 98.4621C346.744 99.6181 347.681 100.555 348.837 100.555H351.374C352.53 100.555 353.467 99.6181 353.467 98.4621C353.467 97.3062 352.53 96.3691 351.374 96.3691Z" fill="white"/>
<path d="M396.792 120.05H400.326C401.098 120.05 401.839 120.357 402.386 120.903C402.932 121.449 403.239 122.19 403.239 122.963C403.239 123.345 403.164 123.724 403.017 124.078C402.871 124.431 402.657 124.753 402.386 125.023C402.116 125.294 401.794 125.509 401.441 125.655C401.087 125.801 400.709 125.877 400.326 125.877H396.793C396.02 125.877 395.279 125.57 394.732 125.023C394.186 124.477 393.879 123.736 393.879 122.963V122.963C393.879 122.19 394.186 121.449 394.732 120.903C395.278 120.357 396.019 120.05 396.792 120.05Z" fill="#9EC8FF"/>
<path d="M397.29 120.871H399.828C400.383 120.871 400.915 121.092 401.308 121.484C401.7 121.877 401.92 122.409 401.92 122.964C401.92 123.519 401.7 124.052 401.307 124.444C400.915 124.837 400.382 125.057 399.827 125.057H397.29C396.735 125.057 396.203 124.837 395.81 124.444C395.418 124.052 395.197 123.519 395.197 122.964V122.964C395.197 122.409 395.418 121.877 395.81 121.484C396.203 121.092 396.735 120.871 397.29 120.871V120.871Z" fill="white"/>
<path d="M378.461 97.246H373.228C373.058 97.246 372.894 97.1783 372.774 97.0579C372.654 96.9375 372.586 96.7742 372.586 96.6039C372.586 96.4336 372.654 96.2704 372.774 96.15C372.894 96.0296 373.058 95.9619 373.228 95.9619H378.459C378.629 95.9619 378.792 96.0296 378.913 96.15C379.033 96.2704 379.101 96.4336 379.101 96.6039C379.101 96.7742 379.033 96.9375 378.913 97.0579C378.792 97.1783 378.629 97.246 378.459 97.246H378.461Z" fill="#9EC8FF"/>
<path d="M378.462 99.2654H373.229C373.058 99.2654 372.895 99.1978 372.774 99.0773C372.654 98.9568 372.586 98.7933 372.586 98.6229C372.586 98.4525 372.654 98.2891 372.774 98.1686C372.895 98.0481 373.058 97.9805 373.229 97.9805H378.459C378.63 97.9805 378.793 98.0481 378.914 98.1686C379.034 98.2891 379.102 98.4525 379.102 98.6229C379.102 98.7933 379.034 98.9568 378.914 99.0773C378.793 99.1978 378.63 99.2654 378.459 99.2654H378.462Z" fill="#9EC8FF"/>
<path d="M366.899 121.61H361.668C361.497 121.61 361.334 121.542 361.214 121.422C361.093 121.302 361.025 121.138 361.025 120.968C361.025 120.797 361.093 120.634 361.214 120.513C361.334 120.393 361.497 120.325 361.668 120.325H366.899C367.069 120.325 367.233 120.393 367.353 120.513C367.474 120.634 367.541 120.797 367.541 120.968C367.541 121.138 367.474 121.302 367.353 121.422C367.233 121.542 367.069 121.61 366.899 121.61Z" fill="#9EC8FF"/>
<path d="M366.899 123.629H361.668C361.497 123.629 361.334 123.561 361.214 123.441C361.093 123.32 361.025 123.157 361.025 122.986C361.025 122.816 361.093 122.652 361.214 122.532C361.334 122.411 361.497 122.344 361.668 122.344H366.899C367.069 122.344 367.233 122.411 367.353 122.532C367.474 122.652 367.541 122.816 367.541 122.986C367.541 123.157 367.474 123.32 367.353 123.441C367.233 123.561 367.069 123.629 366.899 123.629Z" fill="#9EC8FF"/>
<path d="M339.786 106.331H334.555C334.384 106.331 334.221 106.263 334.1 106.143C333.98 106.022 333.912 105.859 333.912 105.688C333.912 105.518 333.98 105.355 334.1 105.234C334.221 105.114 334.384 105.046 334.555 105.046H339.786C339.956 105.046 340.119 105.114 340.24 105.234C340.36 105.355 340.428 105.518 340.428 105.688C340.428 105.859 340.36 106.022 340.24 106.143C340.119 106.263 339.956 106.331 339.786 106.331Z" fill="#9EC8FF"/>
<path d="M339.785 108.349H334.554C334.384 108.349 334.221 108.282 334.1 108.161C333.98 108.041 333.912 107.878 333.912 107.707C333.912 107.537 333.98 107.374 334.1 107.253C334.221 107.133 334.384 107.065 334.554 107.065H339.785C339.955 107.065 340.119 107.133 340.239 107.253C340.36 107.374 340.427 107.537 340.427 107.707C340.427 107.878 340.36 108.041 340.239 108.161C340.119 108.282 339.955 108.349 339.785 108.349Z" fill="#9EC8FF"/>
<path d="M390.299 97.246H385.068C384.897 97.246 384.734 97.1783 384.614 97.0579C384.493 96.9375 384.426 96.7742 384.426 96.6039C384.426 96.4336 384.493 96.2704 384.614 96.15C384.734 96.0296 384.897 95.9619 385.068 95.9619H390.299C390.469 95.9619 390.632 96.0296 390.753 96.15C390.873 96.2704 390.941 96.4336 390.941 96.6039C390.941 96.7742 390.873 96.9375 390.753 97.0579C390.632 97.1783 390.469 97.246 390.299 97.246Z" fill="#9EC8FF"/>
<path d="M390.299 99.2654H385.068C384.898 99.2654 384.735 99.1978 384.614 99.0773C384.494 98.9568 384.426 98.7933 384.426 98.6229C384.426 98.4525 384.494 98.2891 384.614 98.1686C384.735 98.0481 384.898 97.9805 385.068 97.9805H390.299C390.47 97.9805 390.633 98.0481 390.754 98.1686C390.874 98.2891 390.942 98.4525 390.942 98.6229C390.942 98.7933 390.874 98.9568 390.754 99.0773C390.633 99.1978 390.47 99.2654 390.299 99.2654Z" fill="#9EC8FF"/>
<path d="M348.248 112.114H352.517C353.302 112.114 354.054 112.426 354.609 112.981C355.163 113.535 355.475 114.288 355.475 115.072C355.475 115.461 355.399 115.846 355.25 116.205C355.102 116.564 354.884 116.89 354.609 117.165C354.334 117.439 354.008 117.657 353.649 117.806C353.29 117.955 352.906 118.031 352.517 118.031H348.247C347.463 118.031 346.71 117.72 346.155 117.165C345.601 116.61 345.289 115.858 345.289 115.073V115.073C345.289 114.288 345.601 113.536 346.156 112.981C346.711 112.426 347.463 112.114 348.248 112.114V112.114Z" fill="#9CD499"/>
<path d="M349.834 117.054H349.811C349.728 117.051 349.647 117.031 349.573 116.995C349.498 116.96 349.431 116.91 349.377 116.848L347.928 115.201C347.871 115.142 347.826 115.071 347.797 114.995C347.768 114.918 347.755 114.836 347.758 114.753C347.762 114.671 347.782 114.591 347.818 114.517C347.853 114.442 347.904 114.376 347.965 114.322C348.027 114.268 348.099 114.227 348.178 114.201C348.256 114.176 348.338 114.167 348.42 114.174C348.502 114.181 348.582 114.205 348.654 114.244C348.727 114.283 348.79 114.337 348.842 114.401L349.867 115.566L352.505 112.984C352.562 112.928 352.629 112.884 352.703 112.854C352.778 112.825 352.857 112.81 352.937 112.811C353.017 112.811 353.096 112.828 353.169 112.859C353.243 112.891 353.309 112.936 353.365 112.994C353.421 113.051 353.465 113.118 353.495 113.192C353.525 113.267 353.539 113.346 353.539 113.426C353.538 113.506 353.521 113.585 353.49 113.658C353.458 113.732 353.413 113.798 353.356 113.854L350.256 116.885C350.142 116.994 349.991 117.054 349.834 117.054Z" fill="white"/>
<path d="M384.449 87.1992H388.718C389.503 87.1992 390.255 87.5109 390.81 88.0656C391.365 88.6203 391.676 89.3727 391.676 90.1572C391.676 90.5458 391.6 90.9305 391.451 91.2895C391.303 91.6485 391.085 91.9747 390.81 92.2495C390.536 92.5243 390.209 92.7422 389.85 92.891C389.491 93.0397 389.107 93.1162 388.718 93.1162H384.448C383.664 93.1162 382.911 92.8046 382.357 92.2498C381.802 91.6951 381.49 90.9427 381.49 90.1582V90.1582C381.49 89.3734 381.802 88.6208 382.357 88.0659C382.912 87.511 383.664 87.1992 384.449 87.1992V87.1992Z" fill="#9CD499"/>
<path d="M386.035 92.1399H386.013C385.93 92.1367 385.849 92.1167 385.775 92.0813C385.7 92.0459 385.634 91.9958 385.579 91.9339L384.13 90.2869C384.035 90.1645 383.99 90.0102 384.005 89.8559C384.019 89.7015 384.093 89.5587 384.209 89.4565C384.326 89.3543 384.477 89.3005 384.632 89.3062C384.787 89.3119 384.934 89.3764 385.043 89.4869L386.069 90.6529L388.707 88.071C388.822 87.9581 388.978 87.8957 389.139 87.8975C389.3 87.8993 389.455 87.965 389.567 88.0804C389.68 88.1957 389.743 88.3512 389.741 88.5126C389.739 88.674 389.673 88.8281 389.558 88.941L386.458 91.9709C386.344 92.08 386.192 92.1406 386.035 92.1399Z" fill="white"/>
<path d="M389.061 114.865C389.061 115.41 388.899 115.942 388.597 116.395C388.294 116.848 387.864 117.2 387.361 117.409C386.858 117.617 386.305 117.672 385.771 117.565C385.237 117.459 384.746 117.197 384.361 116.812C383.976 116.427 383.714 115.936 383.608 115.402C383.501 114.868 383.556 114.315 383.764 113.812C383.973 113.309 384.326 112.879 384.778 112.576C385.231 112.274 385.763 112.112 386.308 112.112C386.669 112.112 387.027 112.183 387.361 112.322C387.695 112.46 387.999 112.663 388.255 112.918C388.51 113.174 388.713 113.478 388.851 113.812C388.99 114.146 389.061 114.504 389.061 114.865Z" fill="#9EC8FF"/>
<path d="M353.408 123.262C353.408 123.806 353.247 124.339 352.944 124.791C352.642 125.244 352.212 125.597 351.709 125.805C351.206 126.014 350.652 126.068 350.118 125.962C349.584 125.856 349.094 125.593 348.709 125.208C348.324 124.823 348.061 124.333 347.955 123.799C347.849 123.265 347.904 122.711 348.112 122.208C348.32 121.705 348.673 121.275 349.126 120.973C349.579 120.67 350.111 120.509 350.655 120.509C351.386 120.509 352.086 120.799 352.602 121.315C353.118 121.831 353.408 122.532 353.408 123.262Z" fill="#9EC8FF"/>
<path d="M314.732 123.443H367.823C368.488 123.443 369.126 123.708 369.596 124.178C370.066 124.648 370.331 125.286 370.331 125.951V154.161C370.331 154.827 370.066 155.465 369.596 155.935C369.126 156.406 368.488 156.67 367.823 156.67H314.732C314.066 156.67 313.428 156.406 312.958 155.935C312.487 155.465 312.223 154.827 312.223 154.161V125.952C312.223 125.287 312.487 124.649 312.958 124.178C313.428 123.708 314.066 123.443 314.732 123.443V123.443Z" fill="#AFAA2C"/>
<path d="M315.838 124.907H366.711C367.332 124.907 367.928 125.154 368.367 125.593C368.806 126.032 369.053 126.628 369.053 127.249V152.864C369.053 153.485 368.806 154.081 368.367 154.521C367.928 154.96 367.332 155.207 366.711 155.207H315.838C315.53 155.207 315.226 155.147 314.942 155.029C314.657 154.911 314.399 154.738 314.182 154.521C313.964 154.303 313.792 154.045 313.674 153.761C313.556 153.477 313.496 153.172 313.496 152.864V127.249C313.496 126.628 313.743 126.032 314.182 125.593C314.621 125.154 315.217 124.907 315.838 124.907V124.907Z" fill="white"/>
<path d="M364.884 126.765H317.665C316.211 126.765 315.031 127.944 315.031 129.399V150.717C315.031 152.171 316.211 153.351 317.665 153.351H364.884C366.339 153.351 367.518 152.171 367.518 150.717V129.399C367.518 127.944 366.339 126.765 364.884 126.765Z" fill="#AFAA2C"/>
<path d="M341.275 149.28C346.369 149.28 350.499 145.15 350.499 140.056C350.499 134.962 346.369 130.832 341.275 130.832C336.181 130.832 332.051 134.962 332.051 140.056C332.051 145.15 336.181 149.28 341.275 149.28Z" fill="white"/>
<path d="M349.218 140.056C349.218 141.627 348.752 143.163 347.879 144.469C347.007 145.775 345.766 146.793 344.315 147.395C342.863 147.996 341.266 148.153 339.725 147.847C338.185 147.54 336.769 146.784 335.658 145.673C334.548 144.562 333.791 143.147 333.485 141.606C333.178 140.065 333.335 138.468 333.937 137.017C334.538 135.565 335.556 134.325 336.862 133.452C338.168 132.579 339.704 132.113 341.275 132.113C343.382 132.113 345.402 132.95 346.892 134.44C348.381 135.929 349.218 137.95 349.218 140.056Z" fill="#AFAA2C"/>
<path d="M345.191 139.632L342.291 141.308L339.391 142.984V136.279L342.291 137.956L345.191 139.632Z" fill="white"/>
<path d="M308.537 43.8401H272.198C271.975 43.8511 271.751 43.8166 271.541 43.7387C271.332 43.6607 271.14 43.5409 270.978 43.3866C270.816 43.2323 270.687 43.0467 270.599 42.841C270.51 42.6353 270.465 42.4139 270.465 42.1901C270.465 41.9663 270.51 41.7449 270.599 41.5392C270.687 41.3335 270.816 41.1479 270.978 40.9936C271.14 40.8393 271.332 40.7195 271.541 40.6415C271.751 40.5636 271.975 40.5291 272.198 40.5401H308.537C308.961 40.5609 309.36 40.7439 309.652 41.0511C309.945 41.3582 310.108 41.766 310.108 42.1901C310.108 42.6142 309.945 43.022 309.652 43.3291C309.36 43.6363 308.961 43.8193 308.537 43.8401Z" fill="#AFAA2C"/>
<path d="M403.514 183.415H367.174C366.751 183.394 366.351 183.211 366.059 182.904C365.767 182.597 365.604 182.189 365.604 181.765C365.604 181.341 365.767 180.933 366.059 180.626C366.351 180.319 366.751 180.136 367.174 180.115H403.514C403.938 180.136 404.337 180.319 404.63 180.626C404.922 180.933 405.085 181.341 405.085 181.765C405.085 182.189 404.922 182.597 404.63 182.904C404.337 183.211 403.938 183.394 403.514 183.415Z" fill="#AFAA2C"/>
<path d="M403.514 189.472H367.174C366.751 189.451 366.351 189.268 366.059 188.961C365.767 188.654 365.604 188.246 365.604 187.822C365.604 187.398 365.767 186.99 366.059 186.683C366.351 186.376 366.751 186.193 367.174 186.172H403.514C403.938 186.193 404.337 186.376 404.63 186.683C404.922 186.99 405.085 187.398 405.085 187.822C405.085 188.246 404.922 188.654 404.63 188.961C404.337 189.268 403.938 189.451 403.514 189.472Z" fill="#AFAA2C"/>
<path d="M403.514 196.078H367.174C366.751 196.057 366.351 195.875 366.059 195.567C365.767 195.26 365.604 194.852 365.604 194.428C365.604 194.004 365.767 193.596 366.059 193.289C366.351 192.982 366.751 192.799 367.174 192.778H403.514C403.938 192.799 404.337 192.982 404.63 193.289C404.922 193.596 405.085 194.004 405.085 194.428C405.085 194.852 404.922 195.26 404.63 195.567C404.337 195.875 403.938 196.057 403.514 196.078Z" fill="#AFAA2C"/>
<path d="M331.938 50.172H272.198C271.975 50.1831 271.751 50.1486 271.541 50.0706C271.332 49.9927 271.14 49.873 270.978 49.7187C270.816 49.5644 270.687 49.3787 270.598 49.173C270.51 48.9673 270.465 48.7459 270.465 48.5221C270.465 48.2984 270.51 48.0768 270.598 47.8711C270.687 47.6655 270.816 47.4799 270.978 47.3256C271.14 47.1713 271.332 47.0515 271.541 46.9736C271.751 46.8956 271.975 46.8611 272.198 46.8721H331.938C332.162 46.8611 332.385 46.8956 332.595 46.9736C332.805 47.0515 332.996 47.1713 333.158 47.3256C333.32 47.4799 333.45 47.6655 333.538 47.8711C333.626 48.0768 333.671 48.2984 333.671 48.5221C333.671 48.7459 333.626 48.9673 333.538 49.173C333.45 49.3787 333.32 49.5644 333.158 49.7187C332.996 49.873 332.805 49.9927 332.595 50.0706C332.385 50.1486 332.162 50.1831 331.938 50.172Z" fill="#AFAA2C"/>
<path d="M74.0197 141.722C64.5197 150.394 68.6517 159.065 75.6717 175.169C82.6917 191.273 83.9307 250.734 83.9307 250.734L78.1497 249.908C78.1497 249.908 78.9747 188.795 71.1297 172.278C63.2847 155.761 59.9807 147.502 52.9607 152.871C45.9407 158.24 74.0197 141.722 74.0197 141.722Z" fill="#74B570"/>
<path d="M79.2411 130.494C78.0871 125.355 71.2411 119.794 62.0781 115.078C63.4401 122.657 67.8061 135.05 63.2871 137.592C57.1921 141.02 62.6931 123.717 60.3411 114.207C51.3055 109.845 41.7299 106.704 31.8661 104.866C31.8801 104.902 31.8901 104.935 31.9041 104.966C37.2721 118.593 44.2911 123.961 41.4041 126.025C39.2291 127.578 32.1461 111.838 22.7931 103.769C15.7721 103.395 9.8331 104.347 6.3201 107.128C0.8891 111.428 -2.7559 115.242 2.7061 128.334C6.21661 130.776 10.3043 132.258 14.5641 132.634C26.9521 133.873 32.7331 134.286 24.0641 138.415C19.8181 140.437 12.7001 138.301 6.92911 137C8.80111 140.449 11.1021 144.354 13.8981 148.8C15.5614 151.463 17.5059 153.939 19.6981 156.186C23.6901 156.951 27.1711 156.96 29.0141 156.17C34.7951 153.693 49.6601 145.847 53.3761 149.151C57.0141 152.385 25.8451 154.431 28.0051 162.651C43.1121 171.351 60.4001 167.214 63.4551 159.221C67.5581 148.488 82.7111 145.963 79.2411 130.494Z" fill="#9CD499"/>
<path d="M48.0059 189.208C64.5229 176.82 81.4528 188.382 90.1248 201.596C98.7968 214.81 92.6028 244.54 92.6028 244.54C92.6028 244.54 89.3029 244.54 89.3029 243.302C89.3029 242.064 98.3869 208.202 76.9149 192.925C63.4819 183.367 53.7909 187.97 52.5529 192.512C51.3149 197.054 57.9208 205.312 57.9208 205.312L48.0059 189.208Z" fill="#74B570"/>
<path d="M85.9951 163.743C69.4781 163.743 64.1102 189.343 68.6522 204.21C73.1942 219.077 79.3881 246.742 79.3881 246.742L83.5171 242.613C83.5171 242.613 67.8261 203.798 71.5421 186.455C75.2581 169.112 84.3422 166.221 85.9942 166.221C87.6462 166.221 85.9951 163.743 85.9951 163.743Z" fill="#9CD499"/>
<path d="M72.1429 204.327C71.0081 202.777 69.5167 201.524 67.7949 200.673C68.0148 201.867 68.3012 203.048 68.6529 204.211C70.7219 210.985 73.1349 220.411 75.1529 228.674L76.0529 223.474C76.1529 222.88 76.2359 222.236 76.2929 221.552C74.5927 215.891 73.2073 210.141 72.1429 204.327Z" fill="#74B570"/>
<path d="M67.6275 204.45C36.2455 191.236 52.7794 173.104 25.1124 185.079C23.1634 185.923 20.7894 188.049 18.4124 190.979C21.2501 191.84 24.2401 192.079 27.1785 191.679C35.4375 190.44 32.5465 197.047 18.9195 198.699C16.7491 198.919 14.6086 199.371 12.5345 200.047C6.04246 212.515 3.11746 228.921 16.8555 234.624C19.9854 235.814 23.2868 236.491 26.6325 236.63C30.8725 233.26 25.5985 213.764 32.1325 216.455C38.4075 219.039 30.1665 233.169 31.2955 236.729C37.9096 236.532 44.4823 235.611 50.8955 233.981C53.4885 232.528 55.4684 230.581 56.0784 228.017C58.1424 219.346 44.5164 213.978 44.1034 206.545C43.7244 199.712 49.0984 221.577 63.3354 224.795C76.2134 218.788 82.2965 210.627 67.6275 204.45Z" fill="#9CD499"/>
<path d="M89.9877 181.087C86.6877 174.067 95.3557 172.415 94.9427 177.787C94.5767 182.543 94.5367 194.106 99.4147 197.254C109.451 196.012 119.142 192.793 127.928 187.784C128.038 187.046 127.911 186.293 127.564 185.632C123.848 178.2 99.8977 172.005 107.33 169.532C113.25 167.558 123.622 179.205 131.981 185.072C137.001 181.262 140.365 176.723 140.365 171.654C140.365 164.794 132.03 157.028 121.25 153.316C116.399 153.805 111.892 156.458 104.85 160.446C94.4497 166.339 96.8557 156.812 106.688 151.158C102.1 151.337 97.617 152.58 93.5924 154.789C89.5678 156.999 86.1119 160.113 83.4977 163.887C83.4977 163.887 84.0877 167.587 80.1687 173.318C69.4767 188.944 81.8157 198.066 96.5687 197.474C95.7347 193.349 92.2697 185.942 89.9877 181.087Z" fill="#9CD499"/>
<path d="M48.9997 188.509C40.9247 194.749 31.9537 202.044 20.9427 207C9.93166 211.956 12.1327 228.106 12.1327 228.106C12.1327 228.106 10.4807 214.158 19.6577 209.386C28.8347 204.614 34.8907 198.924 41.8657 197.824C45.5124 197.288 49.1271 196.554 52.6937 195.624C52.6937 195.624 50.4937 191.224 51.7757 189.567C53.0577 187.91 48.9997 188.509 48.9997 188.509Z" fill="#74B570"/>
<path d="M9.19727 115.232C38.7453 123.124 60.4023 142.032 64.4403 146.616C68.4783 151.2 68.4783 152.489 68.4783 152.489L65.3583 158.362L63.8903 157.628C63.8903 157.628 66.2763 152.672 60.0363 146.249C49.2753 135.171 36.1773 126.427 27.1833 122.574C18.1893 118.721 9.19727 115.232 9.19727 115.232Z" fill="#74B570"/>
<path d="M64.9355 238.317H105.295V258.61C105.295 263.962 103.168 269.095 99.384 272.88C95.5995 276.664 90.4666 278.79 85.1145 278.79C79.7627 278.79 74.63 276.664 70.8458 272.879C67.0615 269.095 64.9355 263.962 64.9355 258.61V238.317Z" fill="#F39892"/>
</svg>
